<svg xmlns="http://www.w3.org/2000/svg" viewBox="0 0 24 24" fill="none" width="24" height="24">
  <defs>
    <mask id="fp-stamp-mask">
      <rect x="0" y="0" width="24" height="24" rx="2.5" fill="white"/>
      <circle cx="6"  cy="0"  r="1.35" fill="black"/>
      <circle cx="12" cy="0"  r="1.35" fill="black"/>
      <circle cx="18" cy="0"  r="1.35" fill="black"/>
      <circle cx="6"  cy="24" r="1.35" fill="black"/>
      <circle cx="12" cy="24" r="1.35" fill="black"/>
      <circle cx="18" cy="24" r="1.35" fill="black"/>
      <circle cx="0"  cy="7"  r="1.35" fill="black"/>
      <circle cx="0"  cy="12" r="1.35" fill="black"/>
      <circle cx="0"  cy="17" r="1.35" fill="black"/>
      <circle cx="24" cy="7"  r="1.35" fill="black"/>
      <circle cx="24" cy="12" r="1.35" fill="black"/>
      <circle cx="24" cy="17" r="1.35" fill="black"/>
    </mask>
  </defs>
  <rect x="0" y="0" width="24" height="24" rx="2.5" fill="white"/>
  <rect x="0" y="0" width="24" height="24" rx="2.5" fill="#c9a84c" mask="url(#fp-stamp-mask)"/>
  <rect x="4" y="4" width="16" height="16" rx="1.5" fill="#F7EDD0"/>
  <text
    x="12" y="12"
    text-anchor="middle"
    dominant-baseline="central"
    font-family="'Libre Caslon Text', Georgia, serif"
    font-size="13"
    font-weight="700"
    fill="#c9a84c"
  >F</text>
</svg>
